<?xml version="1.0" encoding="UTF-8"?>
<svg id="Calque_2" data-name="Calque 2" xmlns="http://www.w3.org/2000/svg" viewBox="0 0 672.86 981.08">
  <defs>
    <style>
      .cls-1 {
        fill: #ffcf02;
      }

      .cls-2 {
        fill: #0b4b96;
      }
    </style>
  </defs>
  <g id="Calque_1-2" data-name="Calque 1">
    <g>
      <polygon class="cls-1" points="259.71 703.22 333.7 414.2 150.51 414.2 413.16 0 339.16 289.02 522.35 289.02 259.71 703.22"/>
      <g>
        <g>
          <path class="cls-2" d="m157,164.96c-3.87,2.83-4.84,8.17-2.3,12.17-73.34,76.18-91.12,191.01-44.27,285.81-3.62,3.04-4.32,8.43-1.49,12.29,2.96,4.04,8.64,4.92,12.68,1.96,4.04-2.96,4.92-8.64,1.96-12.68h0c-2.25-3.09-6.08-4.32-9.56-3.43-46.05-93.25-28.56-206.17,43.54-281.13,3.05,1.93,7.09,1.89,10.17-.36,4.04-2.96,4.92-8.64,1.96-12.68-2.96-4.04-8.64-4.92-12.68-1.96Z"/>
          <path class="cls-2" d="m225.12,125.6c35.71-17.65,74.25-26.12,112.51-25.9l-2.81,4.03c-36.7.2-73.63,8.54-107.87,25.44.92,3.5-.35,7.34-3.42,9.59-4.04,2.95-9.73,2.08-12.68-1.96-2.96-4.04-2.08-9.73,1.96-12.68,3.87-2.84,9.26-2.13,12.3,1.49Z"/>
          <path class="cls-2" d="m521.13,184.88c-4.04,2.95-9.72,2.07-12.68-1.97h-.01c-2.24-3.09-2.27-7.12-.34-10.16-32.5-31.26-72.13-52.25-114.21-62.27l1.18-3.85c42.68,10.2,82.9,31.53,115.86,63.27,4-2.53,9.33-1.56,12.17,2.31,2.96,4.04,2.07,9.73-1.96,12.68Z"/>
          <path class="cls-2" d="m164.8,530.51c32.49,31.24,72.12,52.24,114.18,62.24l-1.16,3.85c-42.68-10.18-82.9-31.52-115.86-63.24-4,2.53-9.33,1.56-12.17-2.31-2.96-4.03-2.08-9.71,1.96-12.67,4.04-2.96,9.71-2.08,12.67,1.95h.01c2.24,3.09,2.28,7.12.37,10.18Z"/>
          <path class="cls-2" d="m460.04,579.12c-3.88,2.85-9.26,2.14-12.3-1.49-35.69,17.63-74.25,26.1-112.5,25.89l2.81-4.03c36.7-.2,73.61-8.54,107.85-25.44-.9-3.48.35-7.32,3.42-9.57,4.04-2.96,9.72-2.07,12.68,1.97,2.96,4.03,2.08,9.71-1.96,12.67Z"/>
          <path class="cls-2" d="m551.26,226.06c-4.04,2.96-4.92,8.62-1.97,12.67h0c2.26,3.1,6.09,4.34,9.58,3.43,46.03,93.25,28.52,206.17-43.57,281.12-3.05-1.91-7.08-1.88-10.16.37-4.04,2.96-4.92,8.64-1.96,12.68,2.96,4.04,8.64,4.92,12.68,1.96,3.88-2.84,4.85-8.18,2.29-12.18,73.33-76.17,91.12-190.98,44.29-285.79,3.62-3.04,4.32-8.43,1.49-12.29s-8.64-4.92-12.68-1.96Z"/>
        </g>
        <g>
          <path class="cls-2" d="m346.2,62.62c-4.68-.72-9.1,2.29-10.19,6.81-122.35.02-231.36,79.8-268.41,196.39-4.64-.33-8.85,2.97-9.57,7.65-.77,4.95,2.63,9.59,7.58,10.35,4.96.77,9.59-2.63,10.35-7.58.59-3.84-1.3-7.48-4.49-9.27,36.53-114.88,143.94-193.47,264.48-193.52.75,3.58,3.66,6.49,7.48,7.09h.01c4.96.76,9.57-2.63,10.34-7.58.77-4.95-2.62-9.59-7.58-10.35Z"/>
          <path class="cls-2" d="m411.79,91.14c3.84.59,7.48-1.3,9.27-4.51,114.89,36.53,193.47,143.94,193.53,264.49-3.58.74-6.51,3.64-7.1,7.48-.77,4.95,2.63,9.59,7.58,10.35,4.95.77,9.59-2.63,10.35-7.58.72-4.68-2.29-9.1-6.81-10.19-.02-122.34-79.8-231.36-196.39-268.41.33-4.64-2.96-8.85-7.65-9.57-4.95-.77-9.57,2.63-10.34,7.58-.77,4.95,2.62,9.59,7.56,10.35Z"/>
          <path class="cls-2" d="m261.09,612.08h-.01c-3.82-.59-7.47,1.3-9.27,4.48-114.88-36.52-193.46-143.92-193.51-264.46,3.58-.75,6.48-3.66,7.07-7.48h0c.75-4.96-2.62-9.59-7.58-10.35-4.95-.77-9.59,2.63-10.35,7.58-.72,4.68,2.29,9.1,6.81,10.19.02,122.34,79.8,231.36,196.39,268.41-.33,4.64,2.97,8.85,7.65,9.57,4.96.77,9.59-2.63,10.35-7.58.77-4.95-2.6-9.57-7.56-10.35Z"/>
          <path class="cls-2" d="m607.25,419.39c-4.95-.77-9.57,2.62-10.35,7.56h0c-.59,3.84,1.3,7.48,4.49,9.29-36.52,114.88-143.93,193.46-264.48,193.52-.74-3.58-3.64-6.49-7.48-7.09-4.95-.77-9.57,2.63-10.34,7.58-.77,4.95,2.62,9.59,7.56,10.35,4.69.73,9.1-2.29,10.19-6.81,122.35-.02,231.36-79.78,268.41-196.39,4.64.33,8.85-2.97,9.57-7.65.77-4.95-2.63-9.59-7.58-10.35Z"/>
        </g>
      </g>
      <g>
        <path class="cls-2" d="m548.64,869.46h-20.18v33.21h-30.48v-33.21h-68.52v-23.33l44.98-90.59h31.53l-42.25,87.23h34.26v-32.58h30.48v32.58h20.18v26.69Z"/>
        <path class="cls-2" d="m672.86,856.64c0,27.95-22.91,47.5-59.06,47.5-20.81,0-42.46-6.94-56.33-17.24l12.82-24.59c11.98,10.09,26.48,15.55,40.99,15.55,18.5,0,29.01-7.99,29.01-21.02s-10.51-20.18-29.22-20.18h-23.75v-18.92l36.78-35.52h-59.06l-.21-26.9h100.68v19.97l-42.46,39.94,7.57,1.05c25.01,3.15,42.25,17.45,42.25,40.36Z"/>
        <path class="cls-2" d="m0,755.44h104.75v29.85H34.66v35.75h60.14v29.74h-60.14v53.36H0v-148.7Z"/>
        <path class="cls-2" d="m206.22,880.53h-62.32l-9.4,23.62h-36.63l60.9-148.81h32.58l60.9,148.81h-36.52l-9.51-23.62Zm-50.41-29.52h38.49l-18.04-44.94-1.09-4.81h-.22l-1.09,4.81-18.04,44.94Z"/>
        <path class="cls-2" d="m270.62,904.14v-148.7h66.15c7.29,0,13.89.93,19.79,2.79,5.9,1.86,10.95,4.56,15.14,8.09,4.19,3.54,7.42,7.87,9.68,13.01,2.26,5.14,3.39,11.03,3.39,17.66,0,3.06-.49,6.09-1.48,9.08-.98,2.99-2.3,5.74-3.94,8.26-1.64,2.51-3.55,4.74-5.74,6.67-2.19,1.93-4.48,3.37-6.89,4.32,3.57,1.24,6.94,2.97,10.11,5.19,3.17,2.22,5.96,4.83,8.36,7.82,2.41,2.99,4.3,6.31,5.69,9.95,1.38,3.65,2.08,7.47,2.08,11.48,0,8.02-1.46,14.83-4.37,20.45-2.92,5.61-6.72,10.19-11.43,13.72-4.7,3.54-10.04,6.12-16.02,7.76-5.98,1.64-12.03,2.46-18.15,2.46h-72.38Zm34.55-89.11h29.52c1.82,0,3.61-.36,5.36-1.09,1.75-.73,3.32-1.77,4.7-3.12,1.38-1.35,2.51-2.97,3.39-4.87.87-1.89,1.31-4.01,1.31-6.34s-.42-4.35-1.26-6.29c-.84-1.93-1.95-3.59-3.33-4.97-1.39-1.38-2.95-2.46-4.7-3.23s-3.54-1.15-5.36-1.15h-29.63v31.05Zm34.33,60.57c1.82,0,3.77-.35,5.85-1.04,2.08-.69,3.99-1.75,5.74-3.17s3.21-3.23,4.37-5.41c1.17-2.19,1.75-4.77,1.75-7.76,0-2.62-.47-4.97-1.42-7.05-.95-2.08-2.22-3.86-3.83-5.36-1.6-1.49-3.48-2.64-5.63-3.44-2.15-.8-4.43-1.2-6.83-1.2h-34.33v34.44h34.33Z"/>
      </g>
      <g>
        <g>
          <path class="cls-2" d="m10.91,961.78h-4.04v8.85H.55v-27.17h11.91c1.42,0,2.74.22,3.94.67,1.2.45,2.23,1.07,3.11,1.88s1.55,1.77,2.04,2.9.73,2.37.73,3.75c0,.96-.12,1.86-.36,2.71s-.58,1.61-1.02,2.31-.97,1.31-1.6,1.84-1.33.98-2.1,1.34l5.73,9.79h-7.27l-4.73-8.85Zm1.28-5.43c.52,0,1.01-.09,1.46-.27s.85-.43,1.19-.75.61-.71.8-1.16.29-.96.29-1.52-.1-1.05-.29-1.51-.46-.86-.8-1.19-.74-.59-1.19-.78-.94-.28-1.46-.28h-5.31v7.45h5.31Z"/>
          <path class="cls-2" d="m25.71,960.29c0-1.52.28-2.95.84-4.28s1.35-2.51,2.37-3.51,2.23-1.79,3.64-2.37c1.4-.58,2.96-.87,4.66-.87s3.29.29,4.7.87c1.42.58,2.64,1.37,3.66,2.37s1.81,2.17,2.38,3.51.85,2.77.85,4.28c0,.43-.02.76-.05,1s-.07.48-.11.72h-16.8c.17.65.44,1.24.81,1.76s.79.96,1.28,1.33,1.01.65,1.58.85,1.15.3,1.75.3c.97,0,1.82-.21,2.54-.62s1.27-.94,1.64-1.58h6.67c-.31.91-.77,1.79-1.4,2.67s-1.4,1.65-2.32,2.33c-.92.68-1.98,1.23-3.19,1.64s-2.53.62-3.99.62c-1.69,0-3.24-.29-4.65-.87s-2.62-1.37-3.64-2.37-1.8-2.17-2.37-3.51-.85-2.76-.85-4.26Zm11.55-6.13c-1.29,0-2.38.33-3.28.98s-1.54,1.51-1.94,2.58h10.19c-.39-1.05-1-1.91-1.84-2.57-.84-.66-1.88-.99-3.14-.99Z"/>
          <path class="cls-2" d="m57.98,964.16c.05.63.38,1.13.97,1.52s1.34.58,2.25.58c1.17,0,2.02-.15,2.54-.46s.78-.74.78-1.3c0-.33-.12-.6-.36-.81s-.59-.39-1.06-.55-1.04-.31-1.72-.44-1.46-.3-2.36-.5c-.4-.08-.84-.18-1.32-.29s-.96-.27-1.43-.46-.93-.43-1.37-.72-.83-.64-1.17-1.07-.61-.94-.81-1.53-.3-1.29-.3-2.09c0-1.05.19-2,.57-2.85s.96-1.56,1.73-2.14,1.74-1.03,2.92-1.34c1.17-.31,2.55-.47,4.13-.47,1.29,0,2.45.17,3.49.5,1.03.33,1.91.81,2.63,1.42s1.27,1.34,1.65,2.19.57,1.77.57,2.79l-6.19-.02c-.04-.51-.28-.94-.72-1.31s-1.06-.55-1.86-.55c-.95,0-1.64.17-2.1.52s-.67.75-.66,1.2c0,.27.08.49.23.67s.39.33.72.46.74.24,1.25.33,1.11.19,1.82.28c1.09.19,2.13.41,3.12.67.99.26,1.85.62,2.61,1.08s1.35,1.06,1.79,1.8.66,1.67.66,2.81c0,1.24-.25,2.31-.74,3.23s-1.18,1.67-2.07,2.27c-.89.6-1.94,1.04-3.17,1.33-1.23.29-2.57.43-4.04.43-1.6,0-2.97-.21-4.1-.64s-2.07-.98-2.81-1.67-1.27-1.46-1.62-2.32-.52-1.71-.52-2.57l6.07.02Z"/>
          <path class="cls-2" d="m74.12,960.29c0-1.52.28-2.95.84-4.28s1.35-2.51,2.37-3.51,2.23-1.79,3.64-2.37c1.4-.58,2.96-.87,4.66-.87s3.29.29,4.7.87c1.42.58,2.64,1.37,3.66,2.37s1.81,2.17,2.38,3.51.85,2.77.85,4.28c0,.43-.02.76-.05,1s-.07.48-.11.72h-16.8c.17.65.44,1.24.81,1.76s.79.96,1.28,1.33,1.01.65,1.58.85,1.15.3,1.75.3c.97,0,1.82-.21,2.54-.62s1.27-.94,1.64-1.58h6.67c-.31.91-.77,1.79-1.4,2.67s-1.4,1.65-2.32,2.33c-.92.68-1.98,1.23-3.19,1.64s-2.53.62-3.99.62c-1.69,0-3.24-.29-4.65-.87s-2.62-1.37-3.64-2.37-1.8-2.17-2.37-3.51-.85-2.76-.85-4.26Zm11.55-6.13c-1.29,0-2.38.33-3.28.98s-1.54,1.51-1.94,2.58h10.19c-.39-1.05-1-1.91-1.84-2.57-.84-.66-1.88-.99-3.14-.99Z"/>
          <path class="cls-2" d="m100.94,960.29c0-1.52.26-2.95.78-4.28s1.26-2.51,2.22-3.51,2.12-1.79,3.5-2.37c1.37-.58,2.91-.87,4.61-.87,1.37,0,2.6.22,3.7.67,1.09.45,2.02.98,2.78,1.59l.26-1.6h5.25v20.71h-5.25l-.28-1.58c-.77.61-1.7,1.14-2.79,1.58s-2.31.66-3.67.66c-1.69,0-3.22-.29-4.59-.87s-2.54-1.36-3.51-2.36-1.71-2.16-2.23-3.5-.78-2.77-.78-4.28Zm6.17-.02c0,.87.15,1.65.44,2.36s.69,1.31,1.19,1.82,1.09.9,1.76,1.17,1.39.41,2.15.41,1.47-.14,2.15-.41,1.26-.66,1.76-1.16.89-1.11,1.18-1.82.43-1.5.43-2.37-.15-1.63-.44-2.33-.69-1.3-1.19-1.8-1.09-.89-1.76-1.16-1.39-.41-2.15-.41-1.49.14-2.17.41-1.26.66-1.75,1.16-.88,1.1-1.17,1.8-.43,1.47-.43,2.33Z"/>
          <path class="cls-2" d="m144.23,955.29l-2.6.02c-1.7,0-3.03.47-3.99,1.42s-1.43,2.37-1.43,4.27v9.63h-6.15v-20.71h4.95l.48,1.96c.67-.56,1.47-1.03,2.43-1.4s2.07-.56,3.37-.56h2.94v5.37Z"/>
          <path class="cls-2" d="m153.38,960.27c0,.89.15,1.69.44,2.4s.68,1.3,1.17,1.79,1.06.86,1.71,1.12,1.34.39,2.06.39c1.07,0,2.02-.26,2.87-.79.85-.53,1.49-1.26,1.93-2.21h6.31c-.28,1.19-.74,2.29-1.39,3.31s-1.45,1.9-2.41,2.65-2.06,1.33-3.31,1.75-2.59.63-4.05.63c-1.69,0-3.24-.29-4.65-.87s-2.62-1.37-3.64-2.37-1.8-2.17-2.37-3.51-.85-2.76-.85-4.26.28-2.93.84-4.26,1.35-2.51,2.36-3.52,2.22-1.8,3.64-2.39,2.97-.88,4.67-.88c1.45,0,2.8.21,4.04.63s2.33,1,3.29,1.74,1.75,1.62,2.41,2.64,1.13,2.13,1.42,3.33l-6.31.02c-.44-.96-1.08-1.7-1.93-2.23-.85-.53-1.8-.79-2.87-.79-.72,0-1.4.13-2.06.39s-1.23.64-1.72,1.13-.88,1.09-1.17,1.79-.43,1.49-.43,2.39Z"/>
          <path class="cls-2" d="m195.83,970.63h-6.21v-11.03c0-1-.1-1.82-.31-2.47s-.5-1.16-.88-1.54-.84-.65-1.38-.8-1.15-.23-1.83-.23-1.31.13-1.88.38-1.06.61-1.47,1.07-.72,1-.95,1.63-.34,1.32-.34,2.08v10.93h-6.17v-28.17h6.13l-.04,8.77c.79-.56,1.68-1.03,2.7-1.42s2.09-.58,3.24-.58c1.65,0,3.07.23,4.25.7,1.19.47,2.16,1.14,2.92,2.02s1.32,1.95,1.68,3.22.54,2.7.54,4.29v11.15Z"/>
        </g>
        <g>
          <circle class="cls-2" cx="219.33" cy="962.77" r="5.36"/>
          <circle class="cls-2" cx="406.91" cy="962.77" r="5.36"/>
          <g>
            <path class="cls-2" d="m242.83,944.88h11.05c2.06,0,3.98.29,5.75.88s3.31,1.45,4.6,2.6,2.32,2.56,3.06,4.24,1.11,3.63,1.11,5.84c0,2.02-.32,3.87-.96,5.54s-1.57,3.1-2.8,4.29c-1.23,1.19-2.74,2.12-4.53,2.78-1.8.66-3.86.99-6.17.99h-11.11v-27.17Zm10.95,21.73c2.69,0,4.74-.7,6.16-2.09,1.42-1.39,2.13-3.39,2.13-6,0-1.25-.17-2.38-.51-3.4s-.85-1.87-1.54-2.59-1.55-1.26-2.59-1.65-2.26-.58-3.66-.58h-4.61v16.3h4.61Z"/>
            <path class="cls-2" d="m272.24,961.7c0-1.52.28-2.95.84-4.28s1.35-2.51,2.37-3.51c1.02-1,2.23-1.79,3.64-2.37s2.96-.87,4.66-.87,3.29.29,4.7.87,2.64,1.37,3.66,2.37c1.02,1,1.81,2.17,2.38,3.51s.85,2.77.85,4.28c0,.43-.02.76-.05,1s-.07.48-.11.72h-16.8c.17.65.44,1.24.81,1.76s.79.96,1.28,1.33,1.01.65,1.58.85,1.15.3,1.75.3c.97,0,1.82-.21,2.54-.62s1.27-.94,1.64-1.58h6.67c-.31.91-.77,1.79-1.4,2.67s-1.4,1.65-2.32,2.33-1.98,1.23-3.19,1.64c-1.21.41-2.53.62-3.99.62-1.69,0-3.24-.29-4.65-.87s-2.62-1.37-3.64-2.37-1.8-2.17-2.37-3.51-.85-2.76-.85-4.26Zm11.55-6.13c-1.29,0-2.38.33-3.28.98s-1.54,1.51-1.94,2.58h10.19c-.39-1.05-1-1.91-1.84-2.57s-1.88-.99-3.14-.99Z"/>
            <path class="cls-2" d="m304.5,965.58c.05.63.38,1.13.97,1.52s1.34.58,2.25.58c1.17,0,2.02-.15,2.54-.46s.78-.74.78-1.3c0-.33-.12-.6-.36-.81s-.59-.39-1.06-.55-1.04-.31-1.72-.44-1.46-.3-2.36-.5c-.4-.08-.84-.18-1.32-.29s-.96-.27-1.43-.46-.93-.43-1.37-.72-.83-.64-1.17-1.07-.61-.94-.81-1.53-.3-1.29-.3-2.09c0-1.05.19-2,.57-2.85s.96-1.56,1.73-2.14,1.74-1.03,2.92-1.34,2.55-.47,4.13-.47c1.29,0,2.45.17,3.49.5s1.91.81,2.63,1.42c.72.61,1.27,1.34,1.65,2.19s.57,1.77.57,2.79l-6.19-.02c-.04-.51-.28-.94-.72-1.31s-1.06-.55-1.86-.55c-.95,0-1.64.17-2.1.52s-.67.75-.66,1.2c0,.27.08.49.23.67s.39.33.72.46.74.24,1.25.33,1.11.19,1.82.28c1.09.19,2.13.41,3.12.67s1.85.62,2.61,1.08,1.35,1.06,1.79,1.8.66,1.67.66,2.81c0,1.24-.25,2.31-.74,3.23s-1.18,1.67-2.07,2.27-1.94,1.04-3.17,1.33c-1.23.29-2.57.43-4.04.43-1.6,0-2.97-.21-4.1-.64s-2.07-.98-2.81-1.67-1.27-1.46-1.62-2.32-.52-1.71-.52-2.57l6.07.02Z"/>
            <path class="cls-2" d="m321.1,945.76c0-.44.09-.86.26-1.26s.42-.75.75-1.05.72-.54,1.17-.71.96-.26,1.52-.26,1.07.09,1.52.26.84.41,1.17.71.58.65.75,1.05.26.82.26,1.26-.09.88-.26,1.27-.42.74-.75,1.03-.72.53-1.18.7-.97.26-1.53.26-1.05-.09-1.5-.26-.84-.41-1.16-.71-.57-.65-.75-1.04-.27-.81-.27-1.25Zm.54,5.57h6.21v20.71h-6.21v-20.71Z"/>
            <path class="cls-2" d="m333.1,961.7c0-1.52.26-2.95.78-4.28s1.26-2.51,2.22-3.51,2.12-1.79,3.5-2.37,2.91-.87,4.61-.87c.71,0,1.38.06,2.02.19s1.24.3,1.79.52,1.06.47,1.53.76.89.59,1.28.91l.38-1.72h4.99v19.14c0,1.56-.25,2.99-.75,4.28s-1.22,2.42-2.17,3.36-2.11,1.67-3.5,2.19-2.96.78-4.73.78c-1.25,0-2.38-.11-3.38-.34s-1.88-.53-2.66-.92-1.43-.84-1.99-1.37-1.01-1.09-1.38-1.7-.65-1.23-.84-1.88-.31-1.29-.35-1.93h5.87c.13.41.32.8.57,1.17s.56.69.94.96.83.49,1.36.65,1.14.24,1.83.24c1.04,0,1.89-.18,2.55-.53s1.18-.79,1.56-1.32.64-1.09.78-1.68.21-1.13.21-1.61v-.68c-.8.61-1.74,1.13-2.83,1.56-1.09.43-2.31.64-3.69.64-1.54,0-2.96-.27-4.25-.81-1.29-.54-2.4-1.29-3.33-2.24s-1.64-2.08-2.16-3.38c-.51-1.3-.77-2.71-.77-4.22Zm6.17-.02c0,.87.15,1.65.44,2.36s.69,1.31,1.19,1.82,1.09.9,1.76,1.17,1.39.41,2.15.41,1.47-.14,2.15-.41,1.26-.66,1.75-1.16.88-1.11,1.17-1.82.43-1.5.43-2.37-.14-1.63-.43-2.33-.68-1.3-1.18-1.8-1.09-.89-1.76-1.16-1.39-.41-2.15-.41-1.49.14-2.17.41-1.26.66-1.75,1.16-.88,1.1-1.17,1.8-.43,1.47-.43,2.33Z"/>
            <path class="cls-2" d="m383.4,972.05h-6.21v-10.97c0-.96-.1-1.76-.3-2.42s-.48-1.18-.84-1.57-.79-.68-1.29-.85-1.05-.26-1.65-.26c-.76,0-1.44.14-2.06.43s-1.14.68-1.57,1.18-.76,1.1-.99,1.79-.34,1.44-.34,2.26v10.41h-6.17v-20.71h4.97l.38,1.58c.43-.31.9-.6,1.42-.87s1.07-.51,1.64-.71,1.16-.36,1.77-.48,1.22-.18,1.85-.18c1.65,0,3.07.24,4.25.71,1.19.47,2.16,1.15,2.92,2.04s1.32,1.96,1.68,3.23.54,2.7.54,4.29v11.11Z"/>
          </g>
        </g>
        <g>
          <path class="cls-2" d="m430.52,944.88h19.14v5.45h-12.8v6.53h10.99v5.43h-10.99v9.75h-6.33v-27.17Z"/>
          <path class="cls-2" d="m451.67,961.7c0-1.52.26-2.95.78-4.28s1.26-2.51,2.22-3.51,2.12-1.79,3.5-2.37,2.91-.87,4.61-.87c1.37,0,2.6.22,3.7.67s2.02.98,2.78,1.59l.26-1.6h5.25v20.71h-5.25l-.28-1.58c-.77.61-1.7,1.14-2.79,1.58s-2.31.66-3.67.66c-1.69,0-3.22-.29-4.59-.87s-2.54-1.36-3.51-2.36-1.71-2.16-2.23-3.5-.78-2.77-.78-4.28Zm6.17-.02c0,.87.15,1.65.44,2.36s.69,1.31,1.19,1.82,1.09.9,1.76,1.17,1.39.41,2.15.41,1.47-.14,2.15-.41,1.26-.66,1.76-1.16.89-1.11,1.18-1.82.43-1.5.43-2.37-.15-1.63-.44-2.33-.69-1.3-1.19-1.8-1.09-.89-1.76-1.16-1.39-.41-2.15-.41-1.49.14-2.17.41-1.26.66-1.75,1.16-.88,1.1-1.17,1.8-.43,1.47-.43,2.33Z"/>
          <path class="cls-2" d="m503.95,961.7c0,1.52-.26,2.95-.78,4.28s-1.26,2.51-2.23,3.52-2.13,1.8-3.5,2.38c-1.36.58-2.89.87-4.58.87-.68,0-1.33-.06-1.94-.18s-1.19-.29-1.74-.5-1.05-.46-1.52-.74-.89-.57-1.28-.88l-.28,1.6h-5.25v-28.15h6.17v8.61c.75-.55,1.61-.99,2.59-1.34s2.09-.52,3.35-.52c1.7,0,3.24.29,4.59.88s2.51,1.38,3.46,2.38,1.67,2.17,2.18,3.51.76,2.77.76,4.28Zm-6.17-.02c0-.85-.14-1.63-.43-2.33s-.68-1.3-1.17-1.8-1.08-.89-1.75-1.16-1.39-.41-2.17-.41-1.47.14-2.15.41-1.26.66-1.76,1.16-.9,1.1-1.19,1.8-.44,1.47-.44,2.33.14,1.65.43,2.37.68,1.32,1.18,1.82,1.08.89,1.75,1.16,1.38.41,2.16.41,1.47-.14,2.15-.41,1.26-.66,1.76-1.17.9-1.11,1.19-1.82.44-1.49.44-2.36Z"/>
          <path class="cls-2" d="m522.83,956.71l-2.6.02c-1.7,0-3.03.47-3.99,1.42s-1.43,2.37-1.43,4.27v9.63h-6.15v-20.71h4.95l.48,1.96c.67-.56,1.47-1.03,2.43-1.4s2.07-.56,3.37-.56h2.94v5.37Z"/>
          <path class="cls-2" d="m526.3,945.76c0-.44.09-.86.26-1.26s.42-.75.75-1.05.72-.54,1.17-.71.96-.26,1.52-.26,1.07.09,1.52.26.84.41,1.17.71.58.65.75,1.05.26.82.26,1.26-.09.88-.26,1.27-.42.74-.75,1.03-.72.53-1.18.7-.97.26-1.53.26-1.05-.09-1.5-.26-.84-.41-1.16-.71-.57-.65-.75-1.04-.27-.81-.27-1.25Zm.54,5.57h6.21v20.71h-6.21v-20.71Z"/>
          <path class="cls-2" d="m544.48,961.68c0,.89.15,1.69.44,2.4s.68,1.3,1.17,1.79,1.06.86,1.71,1.12,1.34.39,2.06.39c1.07,0,2.02-.26,2.87-.79s1.49-1.26,1.93-2.21h6.31c-.28,1.19-.74,2.29-1.39,3.31s-1.45,1.9-2.41,2.65-2.06,1.33-3.31,1.75c-1.25.42-2.59.63-4.05.63-1.69,0-3.24-.29-4.65-.87s-2.62-1.37-3.64-2.37-1.8-2.17-2.37-3.51-.85-2.76-.85-4.26.28-2.93.84-4.26c.56-1.34,1.35-2.51,2.36-3.52s2.22-1.8,3.64-2.39,2.97-.88,4.67-.88c1.45,0,2.8.21,4.04.63,1.24.42,2.33,1,3.29,1.74s1.75,1.62,2.41,2.64,1.13,2.13,1.42,3.33l-6.31.02c-.44-.96-1.08-1.7-1.93-2.23s-1.8-.79-2.87-.79c-.72,0-1.4.13-2.06.39s-1.23.64-1.72,1.13-.88,1.09-1.17,1.79-.43,1.49-.43,2.39Z"/>
          <path class="cls-2" d="m564.47,961.7c0-1.52.26-2.95.78-4.28s1.26-2.51,2.22-3.51,2.12-1.79,3.5-2.37,2.91-.87,4.61-.87c1.37,0,2.6.22,3.7.67s2.02.98,2.78,1.59l.26-1.6h5.25v20.71h-5.25l-.28-1.58c-.77.61-1.7,1.14-2.79,1.58s-2.31.66-3.67.66c-1.69,0-3.22-.29-4.59-.87s-2.54-1.36-3.51-2.36-1.71-2.16-2.23-3.5-.78-2.77-.78-4.28Zm6.17-.02c0,.87.15,1.65.44,2.36s.69,1.31,1.19,1.82,1.09.9,1.76,1.17,1.39.41,2.15.41,1.47-.14,2.15-.41,1.26-.66,1.76-1.16.89-1.11,1.18-1.82.43-1.5.43-2.37-.15-1.63-.44-2.33-.69-1.3-1.19-1.8-1.09-.89-1.76-1.16-1.39-.41-2.15-.41-1.49.14-2.17.41-1.26.66-1.75,1.16-.88,1.1-1.17,1.8-.43,1.47-.43,2.33Z"/>
          <path class="cls-2" d="m596.63,945.62l4.43-.04v5.75h6.01v5.29h-6.01v7.27c0,.64.08,1.17.23,1.59s.36.75.62,1,.57.42.93.51.75.14,1.16.14h3.46l-.04,5.05h-4.02c-1.16,0-2.25-.1-3.29-.31s-1.93-.61-2.71-1.2-1.38-1.42-1.83-2.5-.67-2.48-.67-4.22v-7.33h-3.3v-4.71l3.14-1.2,1.88-5.09Z"/>
          <path class="cls-2" d="m611.54,945.76c0-.44.09-.86.26-1.26s.42-.75.75-1.05.72-.54,1.17-.71.96-.26,1.52-.26,1.07.09,1.52.26.84.41,1.17.71.58.65.75,1.05.26.82.26,1.26-.09.88-.26,1.27-.42.74-.75,1.03-.72.53-1.18.7-.97.26-1.53.26-1.05-.09-1.5-.26-.84-.41-1.16-.71-.57-.65-.75-1.04-.27-.81-.27-1.25Zm.54,5.57h6.21v20.71h-6.21v-20.71Z"/>
          <path class="cls-2" d="m623.56,961.7c0-1.52.28-2.95.84-4.28.56-1.34,1.35-2.51,2.37-3.51s2.23-1.79,3.65-2.37,2.97-.87,4.67-.87,3.27.29,4.68.87,2.64,1.37,3.66,2.37,1.81,2.17,2.38,3.51c.57,1.34.85,2.77.85,4.28s-.28,2.95-.85,4.28c-.57,1.34-1.36,2.51-2.38,3.51-1.02,1-2.24,1.78-3.67,2.36s-3,.86-4.71.86-3.22-.29-4.63-.87-2.62-1.36-3.64-2.36-1.8-2.16-2.37-3.5-.85-2.77-.85-4.28Zm6.17-.02c0,.87.14,1.65.42,2.35s.67,1.3,1.16,1.81c.49.51,1.07.9,1.72,1.17s1.35.41,2.1.41,1.46-.14,2.12-.41,1.22-.66,1.7-1.16.86-1.1,1.14-1.81.42-1.49.42-2.36-.14-1.63-.42-2.33c-.28-.7-.66-1.3-1.15-1.8s-1.06-.89-1.71-1.16-1.36-.41-2.12-.41-1.44.14-2.1.41-1.22.66-1.71,1.16-.87,1.1-1.15,1.8-.42,1.47-.42,2.33Z"/>
          <path class="cls-2" d="m672.86,972.05h-6.21v-10.97c0-.96-.1-1.76-.3-2.42s-.48-1.18-.84-1.57-.79-.68-1.29-.85-1.05-.26-1.65-.26c-.76,0-1.44.14-2.06.43s-1.14.68-1.57,1.18-.76,1.1-.99,1.79-.34,1.44-.34,2.26v10.41h-6.17v-20.71h4.97l.38,1.58c.43-.31.9-.6,1.42-.87s1.07-.51,1.64-.71,1.16-.36,1.77-.48,1.22-.18,1.85-.18c1.65,0,3.07.24,4.25.71,1.19.47,2.16,1.15,2.92,2.04s1.32,1.96,1.68,3.23.54,2.7.54,4.29v11.11Z"/>
        </g>
      </g>
      <rect class="cls-2" x=".55" y="919.01" width="672.32" height="9.97"/>
    </g>
  </g>
</svg>